<svg width="100" height="100" viewBox="0 0 100 100" fill="none" xmlns="http://www.w3.org/2000/svg">
<g clip-path="url(#clip0_1_2)" filter="url(#filter0_i_1_2)">
<rect width="100" height="100" fill="#EAEAEA"/>
<g filter="url(#filter1_d_1_2)">
<path d="M32 67C32 78.7293 42.737 82.4357 48.9766 82.9434C49.5379 82.9891 50 82.535 50 81.9718V67V51C50 50.4477 49.5582 50.0003 49.0072 50.0391C44.5882 50.3503 32 52.8007 32 67Z" fill="#34A354"/>
<path d="M50 50C47 50 32 51.5 32 67H50V50Z" fill="#34A354"/>
</g>
<g filter="url(#filter2_d_1_2)">
<path d="M68 33C68 21.2707 57.263 17.5643 51.0234 17.0566C50.4621 17.0109 50 17.465 50 18.0282L50 33L50 49C50 49.5523 50.4418 49.9997 50.9928 49.9609C55.4118 49.6497 68 47.1993 68 33Z" fill="#E54336"/>
<path d="M50 50C53 50 68 48.5 68 33L50 33L50 50Z" fill="#E54336"/>
</g>
<g filter="url(#filter3_d_1_2)">
<path d="M33 32C21.2707 32 17.5643 42.737 17.0566 48.9766C17.0109 49.5379 17.465 50 18.0282 50L33 50L49 50C49.5523 50 49.9997 49.5582 49.9609 49.0072C49.6497 44.5882 47.1993 32 33 32Z" fill="#F6B805"/>
<path d="M50 50C50 47 48.5 32 33 32L33 50L50 50Z" fill="#F6B805"/>
</g>
<g filter="url(#filter4_d_1_2)">
<path d="M67 68C78.7293 68 82.4357 57.263 82.9434 51.0234C82.9891 50.4621 82.535 50 81.9718 50L67 50L51 50C50.4477 50 50.0003 50.4418 50.0391 50.9928C50.3503 55.4118 52.8007 68 67 68Z" fill="#4381F0"/>
<path d="M50 50C50 53 51.5 68 67 68L67 50L50 50Z" fill="#4381F0"/>
</g>
</g>
<defs>
<filter id="filter0_i_1_2" x="0" y="0" width="100" height="100" filterUnits="userSpaceOnUse" color-interpolation-filters="sRGB">
<feFlood flood-opacity="0" result="BackgroundImageFix"/>
<feBlend mode="normal" in="SourceGraphic" in2="BackgroundImageFix" result="shape"/>
<feColorMatrix in="SourceAlpha" type="matrix" values="0 0 0 0 0 0 0 0 0 0 0 0 0 0 0 0 0 0 127 0" result="hardAlpha"/>
<feOffset/>
<feGaussianBlur stdDeviation="12.5"/>
<feComposite in2="hardAlpha" operator="arithmetic" k2="-1" k3="1"/>
<feColorMatrix type="matrix" values="0 0 0 0 1 0 0 0 0 1 0 0 0 0 1 0 0 0 1 0"/>
<feBlend mode="normal" in2="shape" result="effect1_innerShadow_1_2"/>
</filter>
<filter id="filter1_d_1_2" x="7" y="25" width="68" height="82.9465" filterUnits="userSpaceOnUse" color-interpolation-filters="sRGB">
<feFlood flood-opacity="0" result="BackgroundImageFix"/>
<feColorMatrix in="SourceAlpha" type="matrix" values="0 0 0 0 0 0 0 0 0 0 0 0 0 0 0 0 0 0 127 0" result="hardAlpha"/>
<feOffset/>
<feGaussianBlur stdDeviation="12.5"/>
<feComposite in2="hardAlpha" operator="out"/>
<feColorMatrix type="matrix" values="0 0 0 0 0.203922 0 0 0 0 0.639216 0 0 0 0 0.329412 0 0 0 1 0"/>
<feBlend mode="normal" in2="BackgroundImageFix" result="effect1_dropShadow_1_2"/>
<feBlend mode="normal" in="SourceGraphic" in2="effect1_dropShadow_1_2" result="shape"/>
</filter>
<filter id="filter2_d_1_2" x="25" y="-7.94655" width="68" height="82.9465" filterUnits="userSpaceOnUse" color-interpolation-filters="sRGB">
<feFlood flood-opacity="0" result="BackgroundImageFix"/>
<feColorMatrix in="SourceAlpha" type="matrix" values="0 0 0 0 0 0 0 0 0 0 0 0 0 0 0 0 0 0 127 0" result="hardAlpha"/>
<feOffset/>
<feGaussianBlur stdDeviation="12.5"/>
<feComposite in2="hardAlpha" operator="out"/>
<feColorMatrix type="matrix" values="0 0 0 0 0.898039 0 0 0 0 0.262745 0 0 0 0 0.211765 0 0 0 1 0"/>
<feBlend mode="normal" in2="BackgroundImageFix" result="effect1_dropShadow_1_2"/>
<feBlend mode="normal" in="SourceGraphic" in2="effect1_dropShadow_1_2" result="shape"/>
</filter>
<filter id="filter3_d_1_2" x="-7.94656" y="7" width="82.9466" height="68" filterUnits="userSpaceOnUse" color-interpolation-filters="sRGB">
<feFlood flood-opacity="0" result="BackgroundImageFix"/>
<feColorMatrix in="SourceAlpha" type="matrix" values="0 0 0 0 0 0 0 0 0 0 0 0 0 0 0 0 0 0 127 0" result="hardAlpha"/>
<feOffset/>
<feGaussianBlur stdDeviation="12.5"/>
<feComposite in2="hardAlpha" operator="out"/>
<feColorMatrix type="matrix" values="0 0 0 0 0.964706 0 0 0 0 0.721569 0 0 0 0 0.0196078 0 0 0 1 0"/>
<feBlend mode="normal" in2="BackgroundImageFix" result="effect1_dropShadow_1_2"/>
<feBlend mode="normal" in="SourceGraphic" in2="effect1_dropShadow_1_2" result="shape"/>
</filter>
<filter id="filter4_d_1_2" x="25" y="25" width="82.9466" height="68" filterUnits="userSpaceOnUse" color-interpolation-filters="sRGB">
<feFlood flood-opacity="0" result="BackgroundImageFix"/>
<feColorMatrix in="SourceAlpha" type="matrix" values="0 0 0 0 0 0 0 0 0 0 0 0 0 0 0 0 0 0 127 0" result="hardAlpha"/>
<feOffset/>
<feGaussianBlur stdDeviation="12.5"/>
<feComposite in2="hardAlpha" operator="out"/>
<feColorMatrix type="matrix" values="0 0 0 0 0.262745 0 0 0 0 0.505882 0 0 0 0 0.941176 0 0 0 1 0"/>
<feBlend mode="normal" in2="BackgroundImageFix" result="effect1_dropShadow_1_2"/>
<feBlend mode="normal" in="SourceGraphic" in2="effect1_dropShadow_1_2" result="shape"/>
</filter>
<clipPath id="clip0_1_2">
<rect width="100" height="100" fill="white"/>
</clipPath>
</defs>
</svg>
